<?xml version="1.0" standalone="no"?><!DOCTYPE svg PUBLIC "-//W3C//DTD SVG 1.1//EN" "http://www.w3.org/Graphics/SVG/1.1/DTD/svg11.dtd"><svg t="1693032821066" class="icon" viewBox="0 0 1024 1024" version="1.1" xmlns="http://www.w3.org/2000/svg" p-id="5177" width="32" height="32" xmlns:xlink="http://www.w3.org/1999/xlink"><path d="M56.9509139 748.99641841c-4.64763334 9.29526674-1.78755127 17.51800267-0.71502051 20.91435012 0.89377566 2.50257182 20.91435011 60.06172342 76.86470555 107.43183269 29.13708607 24.66820784 62.38554013 42.00745538 99.20909675 51.48147722 44.5100272 11.61908339 93.84644284 11.61908339 146.93671623 0.35751025 7.15020517-1.60879617 13.22787956-6.07767442 16.62422701-12.51285904 3.39634746-6.43518466 3.75385772-14.12165522 0.89377567-20.73559498-0.89377566-2.32381667-24.13194244-57.73790673-75.07715429-105.10801601-48.2638849-44.86753743-130.66999947-90.62885053-249.89967069-54.34155929-6.43518466 1.78755127-11.79783853 6.43518466-14.83667572 12.51285904z" fill="#7CD0A4" p-id="5178"></path><path d="M517.42412683 1062.53291509l1.43004104 2.50257183 1.78755127 2.14506155 2.14506156 1.78755129 2.32381668 1.43004104 2.50257181 1.07253078 2.68132695 0.7150205 2.68132694 0.35751027 2.68132692-0.17875514 2.68132695-0.53626537 2.68132694-1.07253079 2.5025718-1.43004102 2.14506157-1.78755131 1.78755129-2.14506156 1.43004104-2.32381668 1.07253075-2.5025718 0.71502053-2.68132693 0.35751025-2.68132693-0.17875512-2.68132695-0.53626539-2.68132695-1.07253078-2.68132692-0.53626538-1.07253079-0.53626539-1.07253077-0.53626539-1.07253078-0.53626539-1.07253077-0.53626539-1.07253078-0.53626537-1.07253075-0.5362654-1.0725308-0.5362654-1.07253077-0.53626537-1.07253077-0.53626539-1.0725308-0.5362654-1.07253077-0.5362654-1.07253075-0.53626536-1.07253078-0.5362654-1.0725308-0.53626538-1.07253076-0.5362654-1.07253078-0.53626537-1.07253078-0.53626539-1.07253077-0.53626539-1.07253078-0.5362654-1.07253078-0.5362654-1.07253076 0.71502054-0.17875513-0.53626539-1.07253079-0.5362654-1.07253078-0.53626537-1.07253076-0.53626539-1.07253078-0.53626539-1.07253078-0.53626539-1.07253076-0.53626538-1.07253077-0.53626539-1.07253079-0.53626538-1.07253076-0.5362654-1.0725308-0.5362654-1.07253078-0.53626538-1.07253076-0.53626539-1.07253078-0.53626538-1.07253078-0.53626539-1.07253076-0.53626539-1.07253078-0.53626539-1.07253078-0.53626537-1.07253076-0.5362654-1.0725308-0.53626539-1.07253076-0.53626538-1.07253079-0.5362654-1.07253077-0.53626537-1.07253078-0.53626542-1.07253075-0.53626536-1.0725308-0.53626539-1.07253076-0.53626538-1.07253077-0.53626541-1.0725308-0.53626537-1.07253077-0.53626539-1.07253075-0.53626539-1.07253079-0.53626539-1.07253078-0.5362654-1.07253077-0.53626536-1.07253078-0.5362654-1.07253078-0.5362654-1.07253076-0.53626537-1.07253079-0.53626539-1.07253079-0.53626541-1.07253076-0.71502051-1.07253077-0.71502051-1.07253077-0.71502051-1.07253078-0.7150205-1.07253077-0.71502054-1.0725308-0.71502052-1.07253077-0.71502052-1.07253079-0.7150205-0.89377563-0.71502054-0.89377564-0.71502051-0.89377564-0.71502051-0.89377565-0.71502051-0.89377563-0.71502051-0.89377566-0.71502053-0.89377566-0.71502052-0.89377562-0.71502052-0.89377567-0.7150205-0.89377563-0.71502053-0.89377566-0.71502052-0.89377567-0.71502052-0.8937756-0.71502051-0.89377566-0.71502052-0.89377565-0.71502051-0.89377565-0.71502051-0.89377562-0.71502054-0.89377566-0.71502049-0.89377566-0.71502053-0.89377563-0.71502052-0.89377568-0.7150205-0.89377561-0.71502052-0.89377566-0.71502054-0.89377565-0.7150205-0.89377563-0.89377565-0.89377563-0.89377564-0.89377568-0.89377565-0.89377565-0.89377566-0.89377562-0.89377563-0.89377568-1.60879619-1.60879615-0.89377563-0.89377564-0.89377564-0.89377564-0.89377566-0.89377566-0.89377563-0.89377565-0.89377565-0.89377563-0.89377566-0.89377566-0.89377563-0.89377564-0.89377566-0.71502054-0.89377563-0.71502046-0.89377564-0.71502056-0.89377568-0.71502051-0.89377563-0.7150205-0.89377564-0.71502054-0.89377564-0.71502053-0.89377567-0.71502049-0.89377564-0.71502053-0.89377563-0.71502052-0.89377565-0.71502049-0.89377564-0.71502054-0.89377568-0.71502051-0.89377562-0.7150205-0.89377564-0.71502053-0.89377566-0.71502052-0.89377564-0.71502049-0.89377564-0.71502054-0.89377566-0.71502054-0.89377565-0.7150205-0.89377562-0.71502052-0.89377566-0.71502052-0.89377563-0.71502053-0.89377567-0.7150205-0.89377563-0.71502052-0.89377566-0.7150205-1.07253077-0.71502053-1.07253078-0.71502052-1.07253077-0.7150205-1.07253077-0.71502052-1.07253078-0.71502051-1.07253077-0.71502051-1.07253078-0.71502054-1.07253079-0.5362654-1.07253077-0.53626537-1.07253077-0.53626539-1.07253077-0.5362654-1.07253078-0.53626538-1.07253078-0.53626539-1.07253076-0.53626537-1.07253079-0.5362654-1.07253076-0.5362654-1.07253079-0.53626538-1.07253078-0.53626538-1.07253079-0.53626538-1.07253076-0.53626541-1.07253077-0.53626537-1.07253079-0.53626538-1.07253076-0.53626541-1.07253077-0.53626539-1.07253078-0.53626537-1.07253078-0.5362654-1.07253077-0.53626539-1.07253078-0.53626538-1.07253077-0.53626539-1.07253078-0.53626538-1.07253078-0.53626539-1.07253076-0.5362654-1.07253078-0.53626536-1.07253078-0.5362654-1.07253077-0.53626541-1.07253078-0.53626537-1.07253078-0.53626538-0.71502052 0.35751025-1.07253077-0.5362654-1.07253078-0.53626538-1.07253077-0.53626538-1.07253078-0.53626539-1.07253078-0.53626539-1.07253078-0.53626541-1.07253077-0.53626534-1.07253078-0.53626541-1.07253077-0.53626541-1.07253077-0.53626537-1.07253077-0.53626538-1.07253078-0.53626539-1.07253077-0.53626539-1.07253077-0.5362654-1.0725308-0.53626539-1.07253079-0.53626536-1.07253075-0.53626542-1.07253077-0.53626538-1.0725308-0.53626537-1.07253075-0.53626541-1.07253078-0.53626539-1.07253079-0.53626538-1.07253076-0.53626538-1.07253078-0.53626541-1.07253079-0.53626537-1.07253076-0.53626541-1.07253078-0.53626534-2.14506155-0.89377567-4.64763337-0.71502052-5.54140901 0.17875515-5.18389874 1.78755129-4.29012309 3.39634743-3.21759232 4.64763336-1.60879617 5.54140901 0.17875512 5.54140901 1.7875513 5.18389875 3.39634745 4.2901231 4.64763338 3.21759232 2.14506152 0.89377567 1.0725308 0.53626539 1.07253075 0.53626539 1.07253078 0.53626539 1.0725308 0.53626538 1.07253076 0.5362654 1.07253078 0.53626538 1.07253078 0.5362654 1.07253076 0.53626534 1.07253079 0.53626543 1.07253078 0.53626538 1.07253076 0.53626539 1.07253079 0.53626537 1.07253077 0.53626541 1.07253078 0.53626539 1.07253077 0.53626538 1.07253078 0.5362654 1.07253075 0.53626537 1.0725308 0.5362654 1.07253076 0.53626537 1.07253077 0.5362654 1.07253079 0.53626538 1.07253079 0.53626539 1.07253075 0.53626539 1.0725308 0.53626539 1.07253076 0.53626539 1.07253077 0.53626538 1.07253077 0.5362654 0.89377567 0.53626537 0.89377564 0.5362654 0.89377565 0.53626537 0.89377564 0.5362654 0.89377566 0.53626539 0.89377564 0.53626538 0.89377564 0.53626539 0.89377564 0.53626539 0.89377564 0.53626541 0.89377566 0.53626536 0.89377565 0.5362654 0.89377563 0.53626537 0.89377567 0.53626541 0.89377564 0.53626538 0.89377564 0.53626538 0.89377566 0.5362654 0.89377563 0.53626539 0.89377564 0.53626537 0.89377564 0.53626539 0.89377567 0.53626539 0.89377563 0.5362654 0.89377566 0.53626538 0.89377565 0.53626538 0.89377563 0.53626541 0.89377566 0.53626538 0.89377564 0.53626537 0.89377563 0.5362654 0.89377566 0.53626539 0.89377565 0.53626538 0.89377563 0.53626539 0.89377565 0.53626538 0.89377566 0.5362654 0.89377565 0.5362654 0.89377565 0.53626537 0.89377562 0.53626538 0.89377566 0.53626541 0.89377564 0.53626537 0.89377566 0.53626538 0.89377561 0.5362654 0.89377567 0.53626538 0.89377565 0.5362654 0.89377564 0.53626538 0.89377567 0.53626539 0.89377563 0.53626538 0.89377565 0.53626541 0.89377563 0.53626536 0.71502052 0.5362654 0.71502053 0.5362654 0.71502052 0.53626537 0.71502051 0.53626539 0.71502052 0.5362654 0.71502052 0.53626538 0.71502052 0.53626538 0.7150205 0.53626539 0.71502051 0.53626538 0.71502053 0.5362654 0.71502051 0.53626539 0.71502052 0.53626537 0.71502051 0.53626541 0.71502051 0.7150205 0.71502054 0.71502053 0.71502052 0.71502052 0.7150205 0.71502049 0.71502051 0.71502053 0.71502054 0.71502052 0.7150205 0.7150205 0.71502055 0.71502053 0.71502049 0.71502051 0.71502054 0.71502051 0.71502049 0.71502053 0.71502052 0.53626538 1.43004102 1.43004104 0.71502053 0.71502052 0.71502053 0.71502051 0.71502052 0.71502051 0.71502051 0.71502053 0.71502053 0.71502052 0.71502051 0.7150205 0.71502051 0.71502052 0.71502051 0.71502053 0.71502052 0.71502052 0.71502053 0.71502053 0.71502051 0.7150205 0.53626539 0.71502053 0.53626537 0.71502051 0.53626539 0.71502052 0.53626541 0.71502051 0.53626536 0.71502051 0.5362654 0.71502052 0.5362654 0.71502051 0.53626538 0.71502053 0.53626537 0.71502051 0.5362654 0.71502053 0.53626539 0.71502051 0.53626539 0.71502051 0.53626538 0.89377564 0.53626538 0.89377567 0.53626541 0.89377564 0.53626538 0.89377564 0.53626538 0.89377565 0.53626538 0.89377565 0.53626541 0.89377562 0.53626537 0.89377565 0.53626539 0.89377566 0.53626539 0.89377565 0.53626539 0.89377563 0.53626541 0.89377565 0.53626536 0.89377566 0.53626539 0.89377564 0.53626538 0.89377567 0.53626542 0.89377561 0.53626535 0.89377566 0.53626539 0.89377566 0.5362654 0.89377562 0.53626541 0.89377566 0.53626538 0.89377565 0.53626539 0.89377565 0.5362654 0.89377562 0.53626535 0.89377568 0.53626542 0.89377564 0.53626538 0.89377564 0.53626538 0.89377565 0.53626539 0.89377562 0.53626539 0.89377567 0.53626538 0.89377565 0.5362654 0.89377562 0.53626539 0.89377564 0.53626537 0.89377568 0.53626541 0.89377564 0.53626537 0.89377563 0.53626539 0.89377568 0.53626539 0.89377562 0.53626539 0.89377565 0.53626538 0.89377565 0.5362654 0.89377564 0.53626538 0.89377564 0.53626538 0.89377567 0.53626541 0.89377562 0.53626537 0.89377566 0.53626539 0.89377566 0.53626538 0.89377564 0.5362654 1.07253078 0.53626538 1.07253075 0.5362654 1.07253077 0.53626538 1.0725308 0.53626538 1.07253077 0.53626539 1.07253077 0.5362654 1.0725308 0.53626537 1.07253075 0.53626539 1.07253078 0.5362654 1.07253077 0.53626539 1.07253078 0.53626539 1.07253077 0.53626538 1.07253079 0.53626537 1.07253077 0.53626541 1.07253079 0.53626539 1.07253076 0.53626536 1.07253077 0.5362654 1.07253078 0.5362654 1.07253078 0.53626538 1.07253075 0.53626539 1.0725308 0.53626539 1.07253076 0.53626538 1.07253079 0.5362654 1.07253079 0.53626538 1.07253077 0.53626537 1.07253075 0.53626541 1.07253079 0.53626539 1.07253078-1.43004104-0.71502054zM1015.79342714 667.66283464c4.64763334 9.29526674 1.78755127 17.51800267 0.71502054 20.91435011-0.89377566 2.50257182-20.91435011 60.06172342-76.86470558 107.43183265-29.13708607 24.66820784-62.38554013 42.00745538-99.20909673 51.48147722-44.5100272 11.61908339-93.84644284 11.61908339-146.93671622 0.35751028-7.15020517-1.60879617-13.22787956-6.07767442-16.62422705-12.51285907-3.39634746-6.43518466-3.75385772-14.12165522-0.89377562-20.73559499 0.89377566-2.32381667 24.13194244-57.73790673 75.07715427-105.10801598 48.2638849-44.86753743 130.66999947-90.62885053 249.89967067-54.3415593 6.61393978 1.78755127 11.97659365 6.25642953 14.83667572 12.51285908z" fill="#7CD0A4" p-id="5179"></path><path d="M554.96270396 981.91435181l-1.43004103 2.50257181-1.78755131 2.14506155-2.14506152 1.7875513-2.32381668 1.43004104-2.50257182 1.07253076-2.68132695 0.71502053-2.6813269 0.35751025-2.86008209-0.17875513-2.86008208-0.53626538-2.68132692-1.07253078-2.50257182-1.43004105-2.14506154-1.78755128-1.78755129-2.14506155-1.43004104-2.32381665-1.07253078-2.50257185-0.71502051-2.68132694-0.35751028-2.68132691 0.17875514-2.86008205 0.5362654-2.86008211 1.07253076-2.68132692 0.5362654-1.07253078 0.5362654-1.07253079 0.53626536-1.07253077 0.5362654-1.07253076 0.53626538-1.07253079 0.5362654-1.07253077 0.53626537-1.07253076 0.53626539-1.07253079 0.53626539-1.07253077 0.5362654-1.07253077 0.5362654-1.07253078 0.53626535-1.07253078 0.53626542-1.07253076 0.53626538-1.07253079 0.53626537-1.07253079 0.53626539-1.07253075 0.53626541-1.07253078 0.53626536-1.0725308 0.53626541-1.07253076 0.53626539-1.07253079 0.53626537-1.07253076 0.53626541-1.07253079 0.53626535-1.07253076 0.5362654-1.07253078 0.5362654-1.07253074 0.53626539-1.07253082 0.53626536-1.07253077 0.53626542-1.07253078 0.53626538-1.07253078 0.53626538-1.07253077 0.53626542-1.07253077 0.53626536-1.07253078 0.53626539-1.07253077 0.53626539-1.07253077 0.53626539-1.07253077 0.53626537-1.07253078 0.53626542-1.07253079 0.53626537-1.07253077 0.53626538-1.07253078 0.53626541-1.07253077 0.53626537-1.07253077 0.53626538-1.07253078 0.53626539-1.07253077 0.53626541-1.07253077 0.53626536-1.07253077 0.53626541-1.07253079 0.53626539-1.07253077 0.53626538-1.07253079 0.53626539-1.07253077 0.53626539-1.07253077 0.53626538-1.07253078 0.53626539-1.07253076 0.53626539-1.07253078 0.53626536-1.07253079 0.53626543-1.07253076 0.53626539-1.07253079 0.53626536-1.07253077 0.5362654-1.07253077 0.5362654-1.07253076 0.7150205-1.07253081 0.71502051-1.07253075 0.71502053-1.07253078 0.7150205-1.07253079 0.71502053-1.07253077 0.71502053-1.07253077 0.71502049-1.07253079 0.71502053-1.07253076 0.71502053-1.07253077 0.7150205-1.07253078 0.71502051-1.07253077 0.71502053-0.89377565 0.7150205-0.89377566 0.71502051-0.89377563 0.71502055-0.89377565 0.71502049-0.89377563 0.71502053-0.89377567 0.71502053-0.89377563 0.7150205-0.89377568 0.71502052-0.89377562 0.71502053-0.89377565 0.7150205-0.89377566 0.71502051-0.89377563 0.71502053-0.89377563 0.71502051-0.89377567 0.71502052-0.89377564 0.71502052-0.89377565 0.71502051-0.89377566 0.7150205-0.89377563 0.71502054-0.89377564 0.71502051-0.89377566 0.71502053-0.89377564 0.71502053-0.89377563 0.89377561-0.89377567 0.89377567-0.89377563 0.89377563-0.89377565 0.89377566-0.89377566 0.89377563-0.89377562 0.89377567-0.89377566 1.60879616-1.60879615 0.89377563-0.89377566 0.89377564-0.89377566 0.89377568-0.89377563 0.89377563-0.89377565 0.89377564-0.89377565 0.89377564-0.89377563 0.89377567-0.89377568 0.89377564-0.89377563 0.89377563-0.71502053 0.89377565-0.71502049 0.89377564-0.71502053 0.89377568-0.71502053 0.89377562-0.7150205 0.89377564-0.71502053 0.89377566-0.71502051 0.89377564-0.71502051 0.89377564-0.71502052 0.89377566-0.71502052 0.89377565-0.71502051 0.89377562-0.71502052 0.89377566-0.71502052 0.89377563-0.7150205 0.89377567-0.71502052 0.89377563-0.71502053 0.89377566-0.71502051 0.89377566-0.71502053 0.89377564-0.71502052 0.89377563-0.7150205 0.89377563-0.71502053 0.89377568-0.71502052 0.89377563-0.7150205 1.07253077-0.71502052 1.07253078-0.71502051 1.07253079-0.71502051 1.07253077-0.71502053 1.07253077-0.71502052 1.07253077-0.7150205 1.07253078-0.71502053 1.07253078-0.71502052 1.07253076-0.71502051 1.07253079-0.71502054 1.07253076-0.53626537 1.07253079-0.53626541 1.07253078-0.53626536 1.07253079-0.5362654 1.07253076-0.53626539 1.07253077-0.53626539 1.07253079-0.53626537 1.07253076-0.53626541 1.07253077-0.53626538 1.07253078-0.53626537 1.07253078-0.53626541 1.07253077-0.53626538 1.07253078-0.53626539 1.07253077-0.53626539 1.07253078-0.53626538 1.07253078-0.53626539 1.07253076-0.5362654 1.07253078-0.53626537 1.07253078-0.53626538 1.07253077-0.53626541 1.07253078-0.53626537 1.07253078-0.53626539 1.07253076-0.5362654 1.07253078-0.53626538 1.07253079-0.53626539 1.07253075-0.5362654 1.07253079-0.53626537 1.07253078-0.53626539 1.07253078-0.5362654 1.07253076-0.53626537 1.07253081-0.53626539 1.07253074-0.5362654 1.07253079-0.53626537 1.07253076-0.5362654 1.07253078-0.53626541 1.07253076-0.53626536 1.07253079-0.53626539 1.07253079-0.53626539 1.07253079-0.53626538 1.07253076-0.53626539 1.07253078-0.53626539 1.07253077-0.53626538 1.07253078-0.53626541 1.07253074-0.53626537 1.07253081-0.53626539 1.07253076-0.53626537 1.07253078-0.53626542 1.07253079-0.53626537 1.07253078-0.53626538 1.07253076-0.53626541 1.07253078-0.53626539 1.07253079-0.53626537 1.07253075-0.53626539 1.07253079-0.53626541 1.07253077-0.53626535 1.07253079-0.53626541 1.07253076-0.53626537 2.14506155-0.89377564 5.54140901-1.60879618 5.541409 0.17875512 5.18389874 1.7875513 4.46887823 3.39634745 3.21759232 4.82638851 1.60879617 5.541409-0.17875511 5.541409-1.78755131 5.18389874-3.39634744 4.46887823-4.82638849 3.21759233-2.14506156 0.89377564-1.07253078 0.53626541-1.07253077 0.53626536-1.07253076 0.5362654-1.07253079 0.53626539-1.07253077 0.53626538-1.07253076 0.53626538-1.07253081 0.53626541-1.07253077 0.53626536-1.07253075 0.5362654-1.0725308 0.53626541-1.07253079 0.53626536-1.07253075 0.5362654-1.07253079 0.53626539-1.07253077 0.53626538-1.07253077 0.53626538-1.07253078 0.53626541-1.07253079 0.53626536-1.07253075 0.5362654-1.07253079 0.53626539-1.07253076 0.53626538-1.07253078 0.53626539-1.07253077 0.53626539-1.07253079 0.53626539-1.07253076 0.53626538-1.0725308 0.53626541-1.07253077 0.53626536-1.07253078 0.5362654-1.07253077 0.53626539-1.07253077 0.5362654-1.07253075 0.53626537-1.0725308 0.53626539-0.89377564 0.53626538-0.89377562 0.53626539-0.89377568 0.53626541-0.89377565 0.53626536-0.89377562 0.53626539-0.89377567 0.53626541-0.89377564 0.53626539-0.89377565 0.53626536-0.89377564 0.5362654-1.9663064 1.07253076-0.89377566 0.5362654-0.89377566 0.53626539-0.89377566 0.53626539-0.89377562 0.5362654-0.89377565 0.53626538-0.89377567 0.53626537-0.89377562 0.53626541-0.89377565 0.53626538-0.89377564 0.53626537-0.89377565 0.53626541-0.89377565 0.53626538-0.89377565 0.53626538-0.89377565 0.5362654-0.89377565 0.53626539-0.89377565 0.53626538-0.89377562 0.5362654-0.89377567 0.53626537-0.89377563 0.53626539-0.89377563 0.5362654-0.89377565 0.53626538-0.89377567 0.53626537-0.89377566 0.53626542-0.89377563 0.53626537-0.89377564 0.53626539-0.89377564 0.53626537-0.89377567 0.53626541-0.89377561 0.53626538-0.89377565 0.53626539-0.89377566 0.53626538-0.89377565 0.53626539-0.89377565 0.5362654-0.89377563 0.53626538-0.89377567 0.53626538-0.89377563 0.53626539-0.71502052 0.5362654-0.71502052 0.53626536-0.71502053 0.53626542-0.7150205 0.53626538-0.71502052 0.53626537-0.71502052 0.53626541-0.71502051 0.53626539-0.71502052 0.53626537-0.71502051 0.53626539-0.71502053 0.71502052-0.7150205 0.71502052-0.71502053 0.71502051-0.71502051 0.71502054-0.7150205 0.71502052-0.71502053 0.7150205-0.71502053 0.71502054-0.71502052 0.71502051-0.71502051 0.7150205-0.71502052 0.71502053-0.71502052 0.71502052-0.71502052 0.71502049-0.71502051 0.71502053-0.7150205 0.71502052-1.43004105 1.43004103-0.71502051 0.71502052-0.71502051 0.71502052-0.71502052 0.71502052-0.71502052 0.71502053-0.71502053 0.71502048-0.71502051 0.71502053-0.7150205 0.71502054-0.71502053 0.7150205-0.71502051 0.71502052-0.71502055 0.71502051-0.71502049 0.71502051-0.53626539 0.71502053-0.5362654 0.71502052-0.53626538 0.7150205-0.53626538 0.71502052-0.53626539 0.71502053-0.53626539 0.7150205-0.53626539 0.71502053-0.53626538 0.71502051-0.53626537 0.71502053-0.53626542 0.7150205-0.53626539 0.89377567-0.53626536 0.89377563-0.53626541 0.89377566-0.53626539 0.89377563-0.53626537 0.89377566-0.53626539 0.89377565-0.5362654 0.89377562-0.53626537 0.89377566-0.53626541 0.89377565-0.53626537 0.89377565-0.53626539 0.89377566-0.5362654 0.89377561-0.53626539 0.89377566-0.53626536 0.89377566-0.53626541 0.89377563-0.53626538 0.89377564-0.53626538 0.89377567-0.5362654 0.89377564-0.53626538 0.89377563-0.53626539 0.89377567-0.53626539 0.89377562-0.53626538 0.89377565-0.53626538 0.89377568-0.53626541 0.89377562-0.53626538 0.89377566-0.53626537 0.89377564-0.53626542 0.89377563-0.53626537 0.89377566-0.5362654 0.89377565-0.53626539 0.89377564-0.53626538 0.89377562-0.53626537 0.89377568-0.5362654 0.89377563-0.53626538 0.89377566-0.5362654 0.89377567-0.53626539 0.89377561-0.53626538 0.89377566-0.53626541 0.89377565-0.53626536 0.89377562-0.5362654 0.89377565-0.53626538 0.89377566-0.5362654 0.89377562-0.53626537 0.89377565-0.5362654 0.89377569-0.53626538 0.89377563-0.5362654 0.89377564-0.53626539 1.07253076-0.53626537 1.07253078-0.5362654 1.07253078-0.53626538 1.07253077-0.53626539 1.07253078-0.53626538 1.07253077-0.53626539 1.07253076-0.5362654 1.07253079-0.53626538 1.07253077-0.53626538 1.07253077-0.5362654 1.07253079-0.5362654 1.07253078-0.53626536 1.07253076-0.5362654 1.07253079-0.53626539 1.07253078-0.53626539 1.07253075-0.53626538 1.07253079-0.53626538 1.07253077-0.5362654 1.07253078-0.53626539 1.07253076-0.53626537 1.07253082-0.53626539 1.07253076-0.53626542 1.07253077-0.53626536 1.07253079-0.53626539 1.07253076-0.53626539 1.07253077-0.53626539 1.07253077-0.53626539 1.07253078-0.5362654 1.07253077-0.53626536 1.07253079 0.53626536 0.89377564z" fill="#7CD0A4" p-id="5180"></path><path d="M528.86445509 1316.14303928c11.44032827 0 20.55683987-9.11651158 20.55683987-20.55683988V713.7382537h-41.11367973v581.8479457c0 11.44032827 9.11651158 20.55683987 20.55683986 20.55683988z" fill="#4ABE81" p-id="5181"></path><path d="M440.87929258 269.10547822l7.43621338 24.97805008c2.47873778 10.10562329 4.38545919 20.40191875 5.91083627 31.07955845 0.76268854 5.72016414-0.9533607 11.63100043-4.9574756 16.01645959-4.0041149 4.38545919-9.5336069 6.67352483-15.44444316 6.48285268-1.33470498 0-20.59259088-0.9533607-46.90534589-8.00822978l-10.29629546-3.05075421 19.06721377 17.92318096c7.0548691 7.43621337 13.91906608 15.44444316 20.59259092 24.02468936 3.62277062 4.5761313 4.95747556 10.48696758 3.62277061 16.20713173-1.33470498 5.72016414-4.95747556 10.48696758-10.10562332 13.34704964-1.14403283 0.57201643-18.30452524 9.34293474-44.61728023 16.58847601l-10.29629547 2.47873779 25.35939435 5.91083627c9.91495119 2.86008207 19.82990235 6.48285271 29.93552563 10.48696758 5.33881986 2.28806565 9.5336069 6.67352483 11.24965614 12.20301682 1.71604925 5.52949199 0.9533607 11.63100043-2.09739352 16.588476-0.76268854 1.14403283-11.05898399 17.35116455-30.31686993 36.60905045l-7.81755764 7.4362134 24.97805004-7.4362134c10.10562329-2.47873778 20.40191875-4.38545919 31.07955847-5.91083628 5.72016414-0.76268854 11.63100043 0.9533607 16.01645961 4.95747561 4.38545919 4.0041149 6.67352483 9.5336069 6.48285268 15.44444316 0 1.33470498-0.9533607 20.59259088-8.0082298 46.90534593l-3.05075419 10.29629545 17.92318095-19.06721381c7.43621337-7.0548691 15.44444316-13.91906608 24.02468938-20.59259088 4.5761313-3.62277062 10.48696758-4.95747556 16.20713171-3.62277062 5.72016414 1.33470498 10.48696758 4.95747556 13.34704965 10.10562331 0.57201643 1.14403283 9.34293474 18.30452524 16.588476 44.61728028l2.47873778 10.29629541 5.91083626-25.35939433c2.86008207-9.91495119 6.48285271-19.82990235 10.48696761-29.93552565 2.28806565-5.33881986 6.67352483-9.5336069 12.20301681-11.24965611 5.52949199-1.71604925 11.63100043-0.9533607 16.58847597 2.09739348 1.14403283 0.76268854 17.35116455 11.05898399 36.6090505 30.31686993l7.43621336 7.81755768-7.43621336-24.97805008c-2.47873778-10.10562329-4.38545919-20.40191875-5.91083628-31.07955845-0.76268854-5.72016414 0.9533607-11.63100043 4.95747559-16.01645958 4.0041149-4.38545919 9.5336069-6.67352483 15.44444315-6.4828527 1.33470498 0 20.59259088 0.9533607 46.90534593 8.00822978l10.29629545 3.05075422-19.0672138-17.92318095c-7.0548691-7.43621337-13.91906608-15.44444316-20.59259088-24.0246894-3.62277062-4.5761313-4.95747556-10.48696758-3.62277061-16.20713171 1.33470498-5.72016414 4.95747556-10.48696758 10.1056233-13.34704964 1.14403283-0.57201643 18.30452524-9.34293474 44.61728026-16.58847599l10.29629544-2.4787378-25.35939434-5.91083628c-9.91495119-2.86008207-19.82990235-6.48285271-29.93552563-10.48696756-5.33881986-2.28806565-9.5336069-6.67352483-11.24965615-12.20301686-1.71604925-5.52949199-0.9533607-11.63100043 2.09739351-16.58847598 0.76268854-1.14403283 11.05898399-17.35116455 30.31686995-36.60905046l7.81755763-7.43621338-24.97805006 7.43621338c-10.10562329 2.47873778-20.40191875 4.38545919-31.07955847 5.91083627-5.72016414 0.76268854-11.63100043-0.9533607-16.01645956-4.95747559-4.38545919-4.0041149-6.67352483-9.5336069-6.48285271-15.44444318 0-1.33470498 0.9533607-20.59259088 8.0082298-46.90534588l3.0507542-10.29629546-17.92318095 19.06721378c-7.43621337 7.0548691-15.44444316 13.91906608-24.0246894 20.5925909-4.5761313 3.62277062-10.48696758 4.95747556-16.20713171 3.62277064-5.72016414-1.33470498-10.48696758-4.95747556-13.34704964-10.10562335-0.57201643-1.14403283-9.34293474-18.30452524-16.588476-44.61728024l-2.47873778-10.29629547-5.91083628 25.35939437c-2.86008207 9.91495119-6.48285271 19.82990235-10.48696757 29.93552564-2.28806565 5.33881986-6.67352483 9.5336069-12.20301683 11.24965613-5.52949199 1.71604925-11.63100043 0.9533607-16.58847601-2.09739352-1.14403283-0.76268854-17.35116455-11.05898399-36.60905045-30.31686991l-7.43621338-7.81755767zM416.66393107 18.37161696c8.00822981-2.28806565 13.91906608 0.9533607 16.58847601 2.47873777 1.90672135 0.9533607 44.42660813 24.97805006 73.98078946 75.69683875 7.62688551 13.15637753 13.72839391 26.88477145 18.30452526 41.18518176l1.90672136 7.81755766 3.05075422-14.49108246c11.05898399-39.46913252 36.22770621-81.03565857 88.66254408-115.16597126 4.5761313-3.05075421 10.10562329-4.0041149 15.44444319-2.66940995 8.00822981 1.90672135 11.63100043 7.81755764 13.1563775 10.48696758 1.14403283 1.71604925 26.12208286 43.8545917 26.31275502 102.58161016 0 15.25377103-1.52537709 30.31686992-4.76680343 44.80795243l-2.28806567 7.62688547 9.91495119-11.05898398c29.17283709-28.60082068 71.88339596-52.05349364 134.23318504-55.29492 5.52949199-0.38134427 10.67763971 1.71604925 14.68175461 5.52949202 5.91083627 5.72016414 6.10150842 12.5843611 6.10150842 15.6351153 0 2.09739353 0.57201643 51.10013297-28.6008207 102.00959377-7.62688551 13.15637753-16.39780386 25.35939435-26.69409927 36.41837832l-5.72016416 5.52949201 14.10973823-4.5761313c39.65980467-10.10562329 88.47187199-9.15226261 143.95746407 19.2578859 4.76680346 2.47873778 8.38957407 6.86419697 9.91495118 12.01234469 2.28806565 8.00822981-0.9533607 13.91906608-2.47873781 16.588476-0.9533607 1.90672135-24.97805006 44.42660813-75.69683873 73.98078948-13.15637753 7.62688551-26.88477145 13.72839391-41.18518178 18.30452525l-7.81755763 1.90672138 14.49108247 3.05075419c39.46913252 11.05898399 81.03565857 36.22770621 115.16597124 88.66254409 3.05075421 4.5761313 3.81344274 10.10562329 2.66940995 15.44444317-1.90672135 8.00822981-7.81755764 11.63100043-10.48696759 13.15637751-1.71604925 1.14403283-43.8545917 26.12208286-102.58161018 26.31275503-15.25377103 0-30.31686992-1.52537709-44.80795237-4.76680345l-7.62688552-2.28806566 11.058984 9.91495117c28.60082068 29.17283709 52.05349364 71.88339596 55.29491997 134.23318505 0.19067215 5.52949199-1.71604925 10.67763971-5.52949199 14.68175463-5.72016414 5.91083627-12.5843611 6.10150842-15.63511531 6.10150841-2.09739353 0-51.10013297 0.57201643-102.00959375-28.60082069-13.15637753-7.62688551-25.35939435-16.39780386-36.41837833-26.69409928l-5.529492-5.72016411 4.5761313 14.10973818c10.10562329 39.65980467 9.15226261 88.47187199-19.25788593 143.95746408-2.47873778 4.76680346-6.86419697 8.38957407-12.01234467 9.91495115-8.00822981 2.28806565-13.91906608-0.9533607-16.58847599-2.47873778-1.90672135-0.9533607-44.42660813-24.97805006-73.98078951-75.69683873-7.62688551-13.15637753-13.72839391-27.07544359-18.3045252-41.18518176l-1.9067214-7.81755769-3.05075421 14.4910825c-11.05898399 39.46913252-36.22770621 81.03565857-88.66254412 115.16597128-4.5761313 3.05075421-10.10562329 3.81344274-15.44444315 2.66940991-8.00822981-1.90672135-11.63100043-7.81755764-13.15637751-10.48696759-1.14403283-1.71604925-26.12208286-43.8545917-26.31275504-102.58161013 0-15.25377103 1.52537709-30.31686992 4.76680347-44.80795241l2.28806564-7.62688552-9.91495115 11.05898398c-29.17283709 28.60082068-71.88339596 52.05349364-134.23318507 55.29491998-5.52949199 0.19067215-10.67763971-1.71604925-14.68175458-5.529492-5.91083627-5.72016414-6.10150842-12.5843611-6.10150845-15.63511529 0-2.09739353-0.57201643-51.10013297 28.60082066-102.00959375 7.62688551-13.15637753 16.39780386-25.35939435 26.69409933-36.41837835l5.72016414-5.529492-14.1097382 4.57613133c-39.65980467 10.10562329-88.47187199 9.15226261-143.9574641-19.25788592-4.76680346-2.47873778-8.38957407-6.86419697-9.91495117-12.01234467-2.28806565-8.00822981 0.9533607-13.91906608 2.47873779-16.58847601 0.9533607-1.90672135 24.97805006-44.42660813 75.69683875-73.98078951 13.15637753-7.62688551 26.88477145-13.72839391 41.18518178-18.30452523l7.81755763-1.90672138-14.49108246-3.05075418c-39.46913252-11.05898399-81.03565857-36.22770621-115.16597128-88.66254414-3.05075421-4.5761313-4.0041149-10.10562329-2.66940993-15.44444315 1.90672135-8.00822981 7.81755764-11.63100043 10.4869676-13.15637752 1.14403283-0.76268854 17.92318096-10.67763971 44.80795239-18.11385309 16.01645957-4.38545919 35.84636191-8.00822981 57.77365778-8.1989019 15.25377103 0 30.31686992 1.52537709 44.80795239 4.95747555l8.58024618 3.05075422-11.82167254-10.67763974c-28.60082068-29.17283709-52.05349364-71.88339596-55.29491996-134.23318504-0.38134427-5.52949199 1.71604925-10.67763971 5.52949199-14.68175462 2.86008207-3.05075421 6.10150842-4.5761313 8.77091834-5.33881986 2.86008207-0.76268854 5.33881986-0.76268854 6.67352483-0.95336068 2.09739353 0 51.10013297-0.57201643 102.00959375 28.60082069 13.15637753 7.62688551 25.35939435 16.39780386 36.41837834 26.6940993l5.52949199 5.72016411-4.57613131-14.10973818c-10.10562329-39.65980467-9.15226261-88.47187199 19.25788592-143.95746412 2.47873778-4.76680346 6.86419697-8.38957407 12.01234469-9.91495113z" fill="#F99552" p-id="5182"></path><path d="M-165.48193984 2021.4493062c0-43.9737618 303.34745433-79.54603251 677.48193984-79.54603251s677.48193984 35.57227072 677.48193984 79.54603251S886.1344855 2100.99533873 512 2100.99533873s-677.48193984-35.57227072-677.48193984-79.54603253z" fill="#EDEDEE" p-id="5183"></path><path d="M469.09876899 246.41549382l0.19067214 26.1220829c-0.57201643 10.29629546-1.52537709 20.78326305-3.24142636 31.46090273-0.9533607 5.72016414-4.19478701 10.86831185-9.34293474 13.91906608-4.95747556 3.05075421-11.05898399 3.62277062-16.58847599 1.71604925-1.14403283-0.38134427-19.44855806-6.86419697-42.7105589-20.97393517l-8.96159046-5.9108363 13.1563775 22.4993123c4.76680346 9.15226261 8.96159047 18.87654164 12.96570537 28.98216493 2.09739353 5.52949199 1.71604925 11.63100043-1.14403281 16.588476-2.86008207 5.14814772-7.81755764 8.77091835-13.5377218 9.91495118-1.33470498 0.19067215-20.21124663 3.81344274-47.47736233 3.24142632l-10.6776397-0.5720164 22.68998438 12.96570539c8.5802462 5.52949199 17.16049241 11.82167255 25.74073862 18.49519735 4.5761313 3.62277062 7.24554125 9.15226261 7.43621337 15.06309889 0.19067215 5.91083627-2.28806565 11.44032827-6.86419696 15.25377102-0.9533607 0.76268854-15.63511532 13.34704964-39.46913254 26.50342719l-9.53360687 4.76680344 26.12208287-0.19067213c10.29629546 0.57201643 20.78326305 1.52537709 31.46090275 3.24142633 5.72016414 0.9533607 10.86831185 4.19478701 13.91906607 9.34293476 3.05075421 4.95747556 3.62277062 11.05898399 1.71604922 16.58847602-0.38134427 1.14403283-6.86419697 19.44855806-20.97393516 42.71055885l-5.91083627 8.96159047 22.49931227-13.15637752c9.15226261-4.76680346 18.87654164-8.96159047 28.98216498-12.96570536 5.52949199-2.09739353 11.63100043-1.71604925 16.58847597 1.14403282 5.14814772 2.86008207 8.77091835 7.81755764 9.91495116 13.53772178 0.19067215 1.33470498 3.81344274 20.21124663 3.24142636 47.47736234l-0.57201643 10.67763972 12.96570538-22.68998441c5.52949199-8.5802462 11.82167255-17.16049241 18.49519737-25.74073859 3.62277062-4.5761313 9.15226261-7.24554125 15.06309889-7.43621341 5.91083627-0.19067215 11.44032827 2.28806565 15.25377104 6.86419697 0.76268854 0.9533607 13.34704964 15.63511532 26.50342712 39.46913252l4.76680349 9.53360692-0.19067214-26.12208287c0.57201643-10.29629546 1.52537709-20.78326305 3.24142636-31.46090276 0.9533607-5.72016414 4.19478701-10.86831185 9.34293473-13.91906606 4.95747556-3.05075421 11.05898399-3.62277062 16.58847598-1.71604925 1.14403283 0.38134427 19.44855806 6.86419697 42.71055891 20.97393515l8.96159045 5.9108363-13.15637751-22.49931226c-4.76680346-9.15226261-8.96159047-18.87654164-12.96570535-28.98216497-2.09739353-5.52949199-1.71604925-11.63100043 1.14403279-16.58847599 2.86008207-5.14814772 7.81755764-8.77091835 13.53772181-9.91495117 1.33470498-0.19067215 20.21124663-3.81344274 47.47736233-3.24142633l10.67763972 0.57201641-22.6899844-12.96570538c-8.5802462-5.52949199-17.16049241-11.82167255-25.74073864-18.49519737-4.5761313-3.62277062-7.24554125-9.15226261-7.43621335-15.0630989-0.19067215-5.91083627 2.28806565-11.44032827 6.86419696-15.25377101 0.9533607-0.76268854 15.63511532-13.34704964 39.46913253-26.50342719l9.5336069-4.76680342-26.12208288 0.19067211c-10.29629546-0.57201643-20.78326305-1.52537709-31.46090275-3.24142632-5.72016414-0.9533607-10.86831185-4.19478701-13.91906606-9.34293477-3.05075421-4.95747556-3.62277062-11.05898399-1.71604924-16.58847599 0.38134427-1.14403283 6.86419697-19.44855806 20.97393516-42.71055887l5.91083627-8.96159049-22.49931226 13.15637748c-9.15226261 4.76680346-18.87654164 8.96159047-28.98216496 12.96570542-5.52949199 2.09739353-11.63100043 1.71604925-16.58847598-1.14403284-5.14814772-2.86008207-8.77091835-7.81755764-9.91495116-13.5377218-0.19067215-1.33470498-3.81344274-20.21124663-3.24142636-47.47736231l0.57201638-10.67763973-12.96570535 22.6899844c-5.52949199 8.5802462-11.82167255 17.16049241-18.49519737 25.74073862-3.62277062 4.5761313-9.15226261 7.24554125-15.06309889 7.43621338-5.91083627 0.19067215-11.44032827-2.28806565-15.25377105-6.86419698-0.76268854-0.9533607-13.34704964-15.63511532-26.50342714-39.46913253l-4.76680344-9.53360689z m48.24005087-247.3017628c8.38957407 0 13.15637753 4.95747556 15.25377102 7.0548691 1.52537709 1.52537709 35.65568979 36.60905046 49.38408371 93.62001968 3.62277062 14.87242676 5.52949199 29.74485349 5.72016414 44.80795241l-0.38134427 8.00822979 7.05486909-12.96570537c21.73662373-34.70232908 57.77365777-67.4979368 117.64470907-85.23044564 5.14814772-1.52537709 10.86831185-0.9533607 15.63511531 1.9067214 7.24554125 4.19478701 8.96159047 10.86831185 9.72427901 13.72839391 0.57201643 2.09739353 12.5843611 49.3840837-4.00411491 105.82303652-4.38545919 14.68175461-10.10562329 28.60082068-17.35116452 41.56652608l-4.38545918 6.86419693 12.58436111-7.6268855c36.03703405-19.06721379 83.89574065-29.55418135 144.52948047-14.87242677 5.33881986 1.33470498 9.91495119 4.76680346 12.58436111 9.34293479 4.19478701 7.24554125 2.28806565 13.91906608 1.52537712 16.77914811-0.57201643 2.09739353-13.91906608 49.00273942-56.43895282 89.6159048-11.05898399 10.48696758-23.07132867 19.63923018-35.8463619 27.2661157l-7.05486912 3.62277063 14.68175462-0.3813443c40.8038375 1.52537709 87.32783913 16.39780386 132.51713583 59.29903489 4.0041149 3.81344274 6.10150842 8.96159047 6.10150839 14.49108249 0 8.38957407-4.95747556 13.15637753-7.05486909 15.25377102-1.52537709 1.52537709-36.60905046 35.65568979-93.6200197 49.38408369-14.87242676 3.62277062-29.74485349 5.52949199-44.80795238 5.72016415l-8.00822979-0.38134428 12.96570538 7.05486911c34.70232908 21.73662373 67.4979368 57.77365777 85.2304456 117.64470904 1.52537709 5.14814772 0.9533607 10.86831185-1.90672137 15.63511534-4.19478701 7.24554125-10.86831185 8.96159047-13.72839394 9.72427902-2.09739353 0.57201643-49.3840837 12.5843611-105.82303649-4.00411491-14.68175461-4.38545919-28.60082068-10.10562329-41.56652606-17.35116457l-6.86419697-4.38545914 7.62688553 12.58436108c19.06721379 36.03703405 29.55418135 83.89574065 14.87242674 144.5294805-1.33470498 5.33881986-4.76680346 9.91495119-9.34293477 12.58436111-7.24554125 4.19478701-13.91906608 2.28806565-16.77914812 1.52537712-2.09739353-0.57201643-49.00273942-13.91906608-89.61590479-56.43895284-10.48696758-11.05898399-19.63923018-23.07132867-27.26611571-35.84636189l-3.62277062-7.0548691 0.38134426 14.6817546c-1.52537709 40.8038375-16.39780386 87.32783913-59.29903484 132.51713584-3.81344274 4.0041149-8.96159047 6.10150842-14.49108248 6.10150837-8.38957407 0-13.15637753-4.95747556-15.25377106-7.05486907-1.52537709-1.52537709-35.65568979-36.60905046-49.3840837-93.62001972-3.62277062-14.87242676-5.52949199-29.74485349-5.72016412-44.80795239l0.38134427-8.00822979-7.05486911 12.96570539c-21.73662373 34.70232908-57.77365777 67.4979368-117.64470904 85.23044563-5.14814772 1.52537709-10.86831185 0.9533607-15.6351153-1.90672138-7.24554125-4.19478701-8.96159047-10.86831185-9.72427905-13.72839393-0.57201643-2.09739353-12.5843611-49.3840837 4.00411489-105.82303651 4.38545919-14.68175461 10.10562329-28.60082068 17.35116455-41.56652603l4.38545917-6.86419699-12.58436108 7.62688551c-36.03703405 19.06721379-83.89574065 29.55418135-144.5294805 14.87242674-5.33881986-1.33470498-9.91495119-4.76680346-12.5843611-9.34293473-4.19478701-7.24554125-2.28806565-13.91906608-1.5253771-16.77914815 0.57201643-2.09739353 13.91906608-49.00273942 56.4389528-89.61590479 11.05898399-10.48696758 23.07132867-19.63923018 35.84636193-27.26611573l7.05486911-3.62277058-14.68175463 0.38134427c-40.8038375-1.52537709-87.32783913-16.39780386-132.51713581-59.29903489-4.0041149-3.81344274-6.10150842-8.96159047-6.10150841-14.49108245 0-8.38957407 4.95747556-13.15637753 7.05486909-15.25377106 1.52537709-1.52537709 36.60905046-35.65568979 93.62001971-49.38408371 14.87242676-3.62277062 29.74485349-5.52949199 44.80795238-5.72016412l8.00822977 0.38134426-12.96570536-7.05486908c-34.70232908-21.73662373-67.4979368-57.77365777-85.23044562-117.6447091-1.52537709-5.14814772-0.9533607-10.86831185 1.90672137-15.63511526 4.19478701-7.24554125 10.86831185-8.96159047 13.72839393-9.72427904 1.33470498-0.38134427 20.21124663-5.14814772 48.04937875-4.5761313 16.77914814 0.19067215 36.60905046 2.47873778 57.77365778 8.5802462 14.68175461 4.38545919 28.60082068 10.10562329 41.56652605 17.35116452l7.43621336 5.33881987-8.38957407-13.53772179c-19.06721379-36.03703405-29.55418135-83.89574065-14.87242674-144.5294805 1.33470498-5.33881986 4.76680346-9.91495119 9.34293472-12.58436109 3.62277062-2.09739353 7.0548691-2.66940994 9.91495119-2.66940994s5.33881986 0.76268854 6.67352482 1.14403286c2.09739353 0.57201643 49.00273942 13.91906608 89.6159048 56.43895278 10.48696758 11.05898399 19.63923018 23.07132867 27.26611572 35.84636194l3.62277063 7.05486908-0.38134429-14.68175462c1.52537709-40.8038375 16.39780386-87.32783913 59.29903487-132.51713579 4.19478701-3.81344274 9.34293474-6.10150842 14.87242676-6.10150843z" fill="#FED572" p-id="5184"></path><path d="M309.88753386 425.45663128c0-119.55143044 96.86144602-216.41287648 216.41287648-216.41287648S742.71328681 305.90520083 742.71328681 425.45663128 645.85184078 641.86950776 526.30041034 641.86950776 309.88753386 545.00806172 309.88753386 425.45663128z" fill="#F99552" p-id="5185"></path><path d="M368.9958966 424.50327058c0-86.37447845 70.35801887-156.35115305 157.30451374-156.35115303s157.30451374 69.97667459 157.30451375 156.35115303-70.35801887 156.35115305-157.30451375 156.35115303-157.30451374-69.97667459-157.30451374-156.35115303z" fill="#976C4F" p-id="5186"></path></svg>